<svg width="29" height="26" viewBox="0 0 29 26" fill="none" xmlns="http://www.w3.org/2000/svg">
<path d="M17.9458 0.60005C16.3138 0.95205 15.0978 1.43205 12.4738 2.74405C9.67378 4.15205 7.16178 5.57605 6.04178 6.39205C5.20978 7.00005 5.16178 7.16005 5.36978 8.72805L5.48178 9.46405L7.09778 8.37605C14.4898 3.43205 20.2818 2.05605 23.8018 4.42405L24.6018 4.95205L24.9538 3.76805C25.3058 2.56805 25.3058 2.56805 25.0018 2.13605C24.5218 1.49605 23.4978 0.87205 22.4578 0.60005C21.3218 0.31205 19.3058 0.31205 17.9458 0.60005Z" fill="#5D8282"/>
<path d="M2.2817 4.07199C2.1857 4.18399 1.8177 4.77599 1.4497 5.36799L0.793701 6.47199L1.2737 7.15999C2.1217 8.39199 2.2817 9.31999 2.3617 13.48C2.3937 15.752 2.4897 17.32 2.5857 17.432C3.0657 18.008 4.5057 17.448 6.6177 15.864C7.8657 14.92 8.0897 14.808 8.4097 14.952C8.8577 15.16 9.4977 14.856 11.8817 13.336C12.7457 12.792 13.4977 12.376 13.5617 12.424C13.6097 12.488 13.5777 13.128 13.4657 13.848C13.0817 16.536 13.3057 17.464 14.5057 18.168C15.1297 18.536 16.4417 18.552 17.4017 18.232C18.3617 17.896 22.0897 15.688 22.0257 15.48C21.9937 15.4 21.5777 15.016 21.0977 14.632L20.2177 13.96L18.7937 14.696C17.5297 15.336 17.2577 15.432 16.5857 15.352C16.1537 15.32 15.6897 15.16 15.4977 14.984C15.1937 14.712 15.1777 14.568 15.2577 13.64C15.6417 9.52799 15.6097 9.31999 14.5537 9.31999C14.0737 9.31999 13.5777 9.55999 12.1377 10.52C11.1297 11.176 10.1377 11.72 9.9297 11.72C9.5777 11.72 9.5617 11.688 9.6737 10.84C9.7697 10.04 9.7377 9.92799 9.3537 9.54399C8.9857 9.17599 8.8257 9.12799 8.2497 9.19199C7.8657 9.23999 7.1297 9.49599 6.6177 9.75199L5.6737 10.232L5.6257 11.544L5.5777 12.856L6.4257 12.376C6.8897 12.12 7.4497 11.864 7.6737 11.816C8.0417 11.72 8.0257 11.752 7.5137 12.2C6.7137 12.92 5.0497 14.088 4.6017 14.264L4.2177 14.408V11.176C4.2177 7.68799 4.0417 6.51999 3.2897 5.03199C2.8097 4.07199 2.5057 3.79999 2.2817 4.07199Z" fill="#5D8282"/>
<path d="M22.1057 5.88005C21.9137 6.28005 21.7537 6.74405 21.7537 6.92005C21.7537 7.32005 22.4737 7.52805 22.9217 7.25605C23.1777 7.09605 23.2577 7.09605 23.3697 7.27205C23.7217 7.81605 21.9137 8.63205 20.7777 8.45605C20.2177 8.36005 20.1697 8.39205 20.0097 8.87205C19.7697 9.54405 20.0737 9.80005 21.1297 9.80005C22.8577 9.80005 24.1537 8.60005 24.1537 6.96805C24.1537 6.52005 24.0257 6.26405 23.5297 5.78405C23.1937 5.43205 22.8097 5.16005 22.6817 5.16005C22.5537 5.16005 22.2977 5.48005 22.1057 5.88005Z" fill="#5D8282"/>
<path d="M17.3858 10.888L16.4578 11.96L17.2578 12.712C18.3458 13.768 18.8258 13.768 19.8658 12.68C20.2818 12.248 20.6338 11.816 20.6338 11.736C20.6338 11.656 20.3938 11.448 20.1218 11.256C19.8338 11.08 19.3378 10.68 19.0498 10.376C18.7458 10.056 18.4578 9.80002 18.4098 9.80002C18.3458 9.81602 17.8978 10.296 17.3858 10.888Z" fill="#5D8282"/>
<path d="M22.1376 11.496C21.4336 13.096 21.3696 12.984 24.0736 14.936C27.2256 17.224 27.4176 17.48 26.6016 18.376C25.2416 19.832 20.5536 22.552 17.2416 23.8C16.8096 23.96 16.4736 24.152 16.4736 24.248C16.4736 24.328 16.7456 24.68 17.0976 25.016C17.6096 25.544 17.8176 25.64 18.3776 25.64C18.7296 25.64 19.3216 25.528 19.6896 25.368C20.7776 24.936 24.7776 22.648 25.7056 21.928C27.9296 20.216 29.2416 17.704 28.7936 16.04C28.5376 15.08 27.6416 14.2 25.1296 12.424C23.9296 11.56 22.8576 10.808 22.7456 10.712C22.6016 10.6 22.4416 10.808 22.1376 11.496Z" fill="#5D8282"/>
<path d="M21.6736 17.4C19.0336 19.24 15.9456 20.744 13.2736 21.48C11.3216 22.024 8.47363 22.024 7.14563 21.496C6.63363 21.288 5.96163 20.92 5.67363 20.648L5.12963 20.184L4.80963 21.288C4.61763 21.896 4.47363 22.504 4.47363 22.648C4.47363 23.08 5.20963 23.8 6.10563 24.248C8.64963 25.528 12.4096 24.968 17.0016 22.616C20.4256 20.872 25.1136 18.008 25.1136 17.656C25.1136 17.48 23.5456 16.36 23.3216 16.376C23.2096 16.376 22.4736 16.84 21.6736 17.4Z" fill="#5D8282"/>
<path d="M7.17764 17.592C5.96164 18.872 5.97764 18.84 6.45764 19.48C6.92164 20.088 7.62564 20.52 8.13764 20.52C8.31364 20.52 8.71364 20.296 9.00164 20.04C9.52964 19.576 9.91364 19.432 9.91364 19.672C9.91364 19.896 10.9696 20.52 11.3376 20.52C11.7056 20.52 13.2736 19.176 13.2736 18.856C13.2736 18.76 12.7936 18.248 12.2016 17.72L11.1456 16.776L10.4576 17.528C10.0896 17.944 9.72164 18.28 9.64164 18.28C9.56164 18.28 9.17764 17.96 8.79364 17.56C8.40964 17.16 8.04164 16.84 7.99364 16.84C7.94564 16.84 7.57764 17.176 7.17764 17.592Z" fill="#5D8282"/>
</svg>
