<svg width="25" height="25" viewBox="0 0 25 25" fill="none" xmlns="http://www.w3.org/2000/svg">
<path d="M12.5 22.9166C18.253 22.9166 22.9167 18.2529 22.9167 12.5C22.9167 6.74701 18.253 2.08331 12.5 2.08331C6.74707 2.08331 2.08337 6.74701 2.08337 12.5C2.08337 18.2529 6.74707 22.9166 12.5 22.9166Z" stroke="white" stroke-width="1.5" stroke-linecap="square"/>
<path d="M12.5 22.9166C15.2778 20.3914 16.6667 16.9192 16.6667 12.5C16.6667 8.08079 15.2778 4.60857 12.5 2.08331C9.72226 4.60857 8.33337 8.08079 8.33337 12.5C8.33337 16.9192 9.72226 20.3914 12.5 22.9166Z" stroke="white" stroke-width="1.5" stroke-linecap="round"/>
<path d="M2.60413 9.375H22.3958M2.60413 15.625H22.3958" stroke="white" stroke-width="1.5" stroke-linecap="round"/>
</svg>
