<svg width="36" height="21" viewBox="0 0 36 21" fill="none" xmlns="http://www.w3.org/2000/svg">
<path fill-rule="evenodd" clip-rule="evenodd" d="M21.83 20.6742C18.2129 20.6345 15.0788 18.7436 13.4127 16.8369C13.7468 16.4329 14.0859 15.8967 14.4319 15.6526C16.4311 18.1931 18.477 19.7489 21.83 20.6742Z" fill="#7B78CC"/>
<path fill-rule="evenodd" clip-rule="evenodd" d="M12.9539 4.548C9.18194 2.17951 5.82498 4.18818 4.83228 5.28723C7.79748 3.94564 10.3175 4.36527 13.266 6.03183C15.356 3.33677 16.1503 1.96362 20.067 0.299316C17.1319 0.429303 14.5719 1.70449 12.9539 4.548Z" fill="#6EC4A7"/>
<path fill-rule="evenodd" clip-rule="evenodd" d="M7.24482 15.5229C5.01893 15.2193 5.06047 12.8445 5.43932 11.6096C4.02962 13.1159 4.13314 15.5295 5.80093 16.76C7.91152 18.3174 11.966 17.5155 13.4784 14.4773C13.1128 13.772 11.9161 12.7381 11.3136 12.1841C10.7431 13.7382 9.33478 15.8079 7.24482 15.5229Z" fill="#6EC4A7"/>
<path fill-rule="evenodd" clip-rule="evenodd" d="M30.8773 9.11162C31.5363 13.1153 28.0122 15.0254 26.9695 15.461C31.9906 15.4222 34.9625 11.4363 33.9362 6.65769C32.941 2.02441 27.7826 -0.697209 22.8742 0.155524C19.7875 0.691766 16.1895 2.58967 13.9309 6.45489C15.0388 7.12583 15.9381 7.94437 16.9124 8.88668C20.0615 2.73294 29.2788 3.03624 30.8773 9.11162Z" fill="#6EC4A7"/>
<path fill-rule="evenodd" clip-rule="evenodd" d="M27.5807 16.3491C19.5748 17.2053 17.2752 6.52624 9.25323 5.47928C7.97192 5.31199 6.60555 5.39158 5.49162 5.84607C-2.78657 9.22403 -0.794188 19.289 5.44433 20.0095C7.65675 20.265 10.5418 19.5969 12.1386 17.0687C10.508 18.2672 7.79201 18.7588 5.89712 17.7083C2.03237 15.5657 3.8405 8.82343 8.68769 10.0736C12.3142 11.009 15.3241 16.1281 18.5036 18.3547C22.9839 21.4923 28.0659 21.0327 31.6396 18.8805C35.5218 16.5425 36.9357 11.3278 34.7938 6.97535C35.4653 11.8488 33.688 15.6959 27.5807 16.3491Z" fill="#7B78CC"/>
</svg>
