<?xml version="1.0" encoding="UTF-8"?>
<!DOCTYPE svg PUBLIC "-//W3C//DTD SVG 1.1//EN" "http://www.w3.org/Graphics/SVG/1.1/DTD/svg11.dtd">
<!-- Creator: CorelDRAW -->
<svg xmlns="http://www.w3.org/2000/svg" xml:space="preserve" width="100mm" height="100mm" version="1.1" style="shape-rendering:geometricPrecision; text-rendering:geometricPrecision; image-rendering:optimizeQuality; fill-rule:evenodd; clip-rule:evenodd"
viewBox="0 0 10000 10000"
 xmlns:xlink="http://www.w3.org/1999/xlink"
 xmlns:xodm="http://www.corel.com/coreldraw/odm/2003">
 <defs>
  <style type="text/css">
   <![CDATA[
    .fil3 {fill:#4C5665}
    .fil2 {fill:#6EC4A7}
    .fil1 {fill:#7B78CC}
    .fil0 {fill:#FEFEFE;fill-rule:nonzero}
   ]]>
  </style>
 </defs>
<symbol id="Fm0-46-0" viewBox="5678.44 793.55 1356.08 637.49">
 <path class="fil0" d="M5678.44 954c72.07,-129.22 241.37,-187.6 381.95,-148.41 73.49,19.68 128.52,76.3 173.85,131.97l136.42 169.58c90.67,107.88 168.98,243.1 304.8,297.01 132.93,48.79 304.45,-24.52 359.06,-156.81 -50.48,138 -224.44,217.77 -363.61,169.58 -141.46,-52.67 -220.73,-189.9 -314.04,-298.77 0,0 -135.05,-170.43 -135.05,-170.43 -44.62,-55.88 -96.69,-108.69 -165.31,-129.18 -135.08,-40.61 -303.24,12.63 -378.07,135.46z"/>
</symbol>
<symbol id="Fm1-47-0" viewBox="8033.01 813.98 1353.33 660.42">
 <path class="fil0" d="M8033.01 982.09c118.46,-222.32 418.47,-221.62 551.85,-12.74 0,0 137.3,172.05 137.3,172.05 92.78,107.6 168.24,249.49 303.92,306.39 135.5,49.53 306.92,-30.34 360.26,-164.68 -49.25,140.09 -222.85,226.45 -364.85,177.45 -142.1,-56.16 -216.95,-198.76 -312.95,-307.98 0,0 -136.31,-173.35 -136.31,-173.35 -128.41,-204.12 -416.21,-207.47 -539.22,2.86z"/>
</symbol>
<symbol id="Fm2-48-0" viewBox="6798.54 3239.26 1357.21 637.7">
 <path class="fil0" d="M6798.54 3401.15c79.23,-125.09 237.07,-193 381.53,-147.92 142.59,47.38 215.37,194.95 309.35,301.49 90.06,107.49 169.44,242.49 305.5,294.6 134.73,50.17 298.21,-22.93 360.83,-154.34 -57.68,135.64 -223.28,217.1 -365.27,167.15 -71.01,-23.5 -128.62,-74.26 -176.39,-128.73 -96.52,-108.27 -181.12,-226.24 -272.84,-338.14 -136.66,-198.76 -407.42,-186.06 -542.71,5.89z"/>
</symbol>
 <g id="Layer_x0020_1">
  <metadata id="CorelCorpID_0Corel-Layer"/>
  <g id="_2231994465648">
   <g>
    <path class="fil1" d="M5413.78 5298.7c-384.01,-4.22 -716.74,-204.96 -893.62,-407.39 35.47,-42.89 71.47,-99.81 108.2,-125.73 212.25,269.71 429.45,434.88 785.42,533.12z"/>
    <path class="fil2" d="M4471.45 3586.64c-400.45,-251.45 -756.84,-38.2 -862.23,78.48 314.8,-142.43 582.34,-97.88 895.36,79.05 221.89,-286.12 306.21,-431.9 722.03,-608.59 -311.6,13.8 -583.39,149.18 -755.16,451.06z"/>
    <path class="fil2" d="M3865.35 4751.8c-236.31,-32.23 -231.9,-284.35 -191.68,-415.45 -149.66,159.91 -138.67,416.15 38.39,546.79 224.07,165.34 654.51,80.21 815.08,-242.34 -38.82,-74.88 -165.86,-184.65 -229.83,-243.46 -60.57,164.99 -210.08,384.72 -431.96,354.46z"/>
    <path class="fil2" d="M6374.29 4071.15c69.96,425.05 -304.17,627.83 -414.87,674.08 533.06,-4.12 848.57,-427.28 739.61,-934.6 -105.65,-491.89 -653.29,-780.83 -1174.39,-690.3 -327.7,56.93 -709.68,258.42 -949.46,668.77 117.62,71.23 213.09,158.13 316.53,258.17 334.32,-653.31 1312.87,-621.11 1482.58,23.88z"/>
    <path class="fil1" d="M6024.3 4839.51c-849.94,90.9 -1094.08,-1042.84 -1945.73,-1153.99 -136.03,-17.76 -281.09,-9.31 -399.35,38.94 -878.85,358.62 -667.33,1427.16 -5.02,1503.66 234.88,27.12 541.17,-43.81 710.69,-312.21 -173.11,127.23 -461.45,179.43 -662.62,67.9 -410.3,-227.47 -218.34,-943.26 296.26,-810.54 385.01,99.31 704.55,642.78 1042.1,879.16 475.65,333.11 1015.18,284.31 1394.58,55.82 412.15,-248.21 562.26,-801.82 334.86,-1263.9 71.29,517.39 -117.39,925.81 -765.77,995.16z"/>
   </g>
   <g>
    <g>
     <path class="fil3" d="M3346.2 6657.11l0 8.46c57.79,0 156.47,8.46 211.45,21.14 85.99,19.74 104.31,1.41 187.48,-23.96 124.05,-38.06 215.68,-69.07 322.81,-140.96 77.53,-53.57 57.8,-74.72 74.71,-156.48 7.05,-32.42 14.1,-200.16 23.97,-208.62 25.37,-23.97 73.3,12.68 143.78,-88.81 15.51,-22.55 22.56,-56.39 40.88,-74.71 43.7,-40.88 57.8,21.14 66.26,26.78 26.78,1.41 88.8,-156.47 74.71,-198.76 -14.1,-38.06 -62.03,-43.7 -93.04,-18.32 -18.32,16.91 -40.88,62.02 -53.57,84.57 -32.42,59.21 -97.26,117.01 -174.79,85.99 -70.49,-28.19 -87.4,-156.47 -126.87,-150.83 -1.41,1.41 -23.97,71.89 -28.2,83.17 -11.27,29.6 -26.78,53.57 -14.09,83.17 22.55,50.75 46.52,97.26 70.48,150.83 21.15,49.34 43.7,128.28 38.06,183.26 -7.05,56.38 -74.71,76.12 -119.82,97.26 -197.35,90.22 -442.63,153.65 -644.21,236.82z"/>
     <path class="fil3" d="M3811.38 5829.65c-8.45,14.1 -59.2,181.84 -56.38,200.17 7.05,46.52 88.81,111.36 117,139.55 80.35,77.53 -18.33,98.68 -84.58,109.96 -74.71,14.09 -145.19,-18.33 -152.24,-101.5 -11.28,-152.24 0,-355.23 0,-513.11 0,-42.29 0,-85.99 0,-128.28 0,-22.55 9.87,-115.59 -14.1,-108.54 -22.55,7.05 -8.46,54.98 -38.06,90.22 -21.14,25.37 -46.52,42.29 -52.16,77.53 -8.45,52.15 0,194.53 0,256.55 0,85.99 0,170.57 0,256.56 0,169.16 -19.73,297.43 180.44,331.27 179.03,32.42 205.81,-138.15 235.41,-273.48 18.33,-85.98 29.6,-135.32 -43.7,-190.3 -19.73,-15.5 -56.38,-39.47 -66.25,-62.02 -19.74,-52.16 29.6,-90.22 -25.38,-84.58z"/>
     <path class="fil3" d="M6415.02 6427.34c12.69,-2.82 111.36,36.65 38.06,53.57 -80.35,18.32 -84.58,-40.88 -38.06,-53.57zm5.64 -101.5c-222.73,428.54 188.89,148.02 114.18,257.97 -15.51,22.55 -184.67,52.16 -198.76,-42.29 -8.46,-52.16 16.91,-76.12 -25.38,-115.59 -35.24,-31.01 -60.61,-31.01 -52.15,-81.76 9.86,-73.3 -43.7,64.84 -43.7,64.84 -16.92,42.29 4.23,70.49 32.42,95.86 15.51,16.92 73.3,57.8 43.7,80.35 -26.78,19.74 -83.17,23.96 -114.18,15.51 -64.85,-19.74 -42.29,-184.67 -42.29,-241.05 0,-29.61 4.23,-272.07 -4.23,-279.11 -5.64,0 -25.38,53.56 -43.7,73.3 -23.97,25.37 -15.51,64.84 -15.51,101.49 0,77.53 0,156.47 0,234 0,73.31 -14.09,139.56 45.11,190.31 23.97,19.73 62.03,26.78 93.04,23.96 62.02,-7.05 47.93,-23.96 78.94,-38.06 26.78,8.46 32.42,23.96 77.53,32.42 33.83,5.64 64.84,8.46 100.09,1.41 69.07,-11.28 90.21,-45.11 111.36,-108.54 31.01,-97.27 -56.39,-273.47 -156.47,-265.02z"/>
     <path class="fil3" d="M4972.94 6648.65c25.37,8.46 43.7,87.4 152.24,49.34 21.15,-8.46 57.8,-50.75 59.21,-50.75 0,0 42.29,43.7 59.2,47.93 71.9,21.15 117.01,-4.23 136.74,-73.3 11.28,-36.65 43.7,-142.37 38.06,-179.02 -4.23,-19.74 -36.65,-43.7 -52.16,-59.21 -32.42,-35.24 -19.73,-69.07 -28.19,-73.3 -14.1,-5.64 -66.25,117 -28.19,155.06 26.78,28.19 108.54,85.99 49.34,122.64 -18.33,11.28 -76.13,11.28 -97.27,7.05 -49.34,-9.87 -22.55,-62.03 -31.01,-76.12 -19.74,1.41 -46.52,67.66 -90.22,81.76 -39.47,14.09 -102.91,16.91 -126.87,-28.2 -28.19,-52.15 19.74,-100.08 -21.14,-139.55 -15.51,-14.1 -32.43,-25.38 -46.52,-39.47 -29.61,-25.38 -8.46,-56.39 -14.1,-64.85 -16.92,-2.82 -40.88,73.31 -47.93,91.63 -12.68,36.65 18.33,66.25 42.29,90.22 18.33,18.32 74.71,57.79 31.01,77.53 -28.19,12.69 -81.76,28.19 -114.18,9.87 -52.15,-29.61 -33.83,-187.49 -33.83,-243.87 0,-28.2 4.23,-269.24 -2.82,-273.47 -22.55,-1.41 -9.87,21.14 -21.14,40.88 -8.46,16.91 -15.51,21.14 -26.79,33.83 -23.96,28.19 -15.5,66.25 -15.5,105.72 0,80.35 0,162.11 0,242.46 0,67.66 -9.87,143.78 59.2,183.25 80.35,46.52 122.64,7.05 170.57,-38.06z"/>
     <path class="fil3" d="M4727.66 5496.97c-76.12,32.42 -94.45,81.76 -193.12,81.76 -33.83,1.41 -81.76,-11.28 -107.14,-31.01 -29.6,-23.96 -53.56,-53.57 -87.39,-15.51 -70.49,81.76 -83.17,73.31 -162.12,1.41 -33.83,-29.6 -43.69,-53.56 -77.53,-4.23 -16.91,23.97 -60.61,54.98 -40.88,84.58 31.02,45.11 112.78,109.96 179.03,74.71 38.06,-19.73 50.75,-62.02 83.17,-42.29 40.88,22.56 29.6,29.61 90.22,49.34 70.48,22.56 148.01,-29.6 195.94,-73.3 0,0 186.07,-153.65 119.82,-125.46z"/>
     <path class="fil3" d="M4634.62 6186.29c-1.41,1.41 -25.37,64.84 -28.19,73.3 -11.28,28.19 2.82,40.88 18.33,69.07 22.55,43.7 47.92,104.32 47.92,153.66 1.41,80.35 -205.81,133.91 -274.88,128.27 -53.57,-4.23 -104.31,-19.73 -125.46,-73.3 -9.87,-28.19 -12.69,-60.61 -5.64,-90.22 14.1,-54.97 7.05,-29.6 36.65,-63.43 84.58,-93.04 -81.76,11.28 -39.47,-94.45 8.46,-22.55 23.97,-42.29 35.25,-63.43 31.01,-49.34 -12.69,-9.87 -25.38,9.87 -19.73,28.19 -64.84,115.59 -35.24,148.01 22.55,26.78 -14.1,128.28 -8.46,170.57 21.15,143.78 101.5,169.16 241.05,143.78 36.65,-5.64 114.19,-38.06 143.79,-59.2 69.07,-49.34 66.25,-35.24 78.94,-122.64 7.05,-50.75 11.28,-142.38 7.05,-194.53 -2.82,-22.56 -47.93,-132.51 -66.26,-135.33z"/>
     <path class="fil3" d="M3932.61 6903.8l8.46 0c0,0 54.98,-12.69 69.08,-21.14 15.5,-11.28 33.83,-40.88 49.33,-39.47 11.28,0 45.11,25.37 56.39,33.83 9.87,7.05 62.02,26.78 62.02,26.78l49.34 0 243.87 -173.39 -9.86 -11.27c-52.16,-4.23 -98.68,101.49 -241.06,49.33 -36.65,-14.09 -77.53,-62.02 -105.72,-49.33 -28.19,14.09 -52.16,70.48 -87.4,71.89 -88.81,5.64 -104.31,-159.29 -184.66,-45.11 -38.06,53.57 -54.98,38.06 -4.23,93.04 15.5,14.09 25.37,25.37 42.29,38.06 9.87,5.64 52.15,26.78 52.15,26.78z"/>
     <path class="fil3" d="M5858.2 6430.16c16.92,-4.23 108.55,38.06 33.84,49.34 -80.35,12.68 -76.13,-38.06 -33.84,-49.34zm-211.44 324.22c4.23,4.23 102.9,8.46 118.41,12.68 60.61,12.69 42.29,16.92 98.67,-14.09 50.75,-28.19 108.55,-62.03 139.56,-121.23 33.83,-66.26 28.19,-149.42 -7.05,-210.04 -18.32,-32.42 -114.18,-139.55 -140.96,-74.71 -19.74,45.11 -78.95,150.83 -56.39,197.35 40.88,83.17 193.12,-29.6 186.07,23.96 -11.27,76.13 -336.9,180.44 -338.31,186.08z"/>
     <path class="fil3" d="M5691.87 6469.63c12.68,54.98 85.98,76.12 -22.56,132.51 -46.52,22.55 -112.77,42.29 -163.52,63.43 -52.16,19.73 -111.36,40.88 -162.11,62.02 -19.74,8.46 -94.45,25.38 -46.52,29.61 33.83,2.82 69.07,2.82 101.5,9.86 84.58,16.92 265.01,-52.15 322.81,-117 28.19,-31.01 38.06,-145.19 38.06,-187.48 0,-12.69 -21.15,-78.94 -36.65,-70.48 -11.28,5.64 -35.24,62.02 -31.01,77.53z"/>
     <path class="fil3" d="M4228.64 5303.85c-19.73,12.69 -85.99,67.66 -78.94,87.4 11.28,26.78 67.67,66.25 94.45,77.53 102.9,43.7 171.98,-11.28 242.46,-69.07 22.55,-18.33 77.53,-57.8 88.81,-81.76 16.91,-33.83 -91.63,39.47 -101.5,42.29 -155.06,62.02 -210.04,-76.12 -245.28,-56.39z"/>
     <path class="fil3" d="M3886.1 5409.57c4.23,-16.91 15.5,-16.91 31.01,-15.5 7.05,1.41 14.1,11.28 18.32,16.91l1.41 2.82c7.05,7.05 8.46,18.33 -4.23,18.33 -15.5,0 -43.69,-2.82 -46.51,-22.56zm-119.82 373.56c25.37,0 102.9,-77.53 124.05,-100.08 80.35,-83.17 39.47,-122.64 73.3,-160.7l49.34 42.29c21.14,-16.92 11.27,-80.35 -21.15,-101.5 -23.96,-16.92 -5.64,-84.58 -23.96,-115.59 -43.7,-77.53 -128.28,22.55 -119.82,107.13 5.63,49.34 76.12,43.7 73.3,63.44 -1.41,26.78 -32.42,78.94 -45.11,94.44 -14.1,15.51 -109.95,159.29 -109.95,170.57z"/>
     <path class="fil3" d="M6646.2 6184.88l0 -9.87c-25.37,0 -70.48,59.21 -132.51,39.47 -70.48,-22.55 -46.51,-64.84 -114.18,-22.55 -126.87,77.53 -150.83,-45.11 -187.48,-14.1 -8.46,7.05 -42.29,38.06 -43.7,46.52 2.82,25.37 76.12,63.43 104.31,63.43 45.11,-1.41 102.91,-54.97 112.78,-54.97 38.06,18.32 59.2,78.94 143.78,43.7 29.6,-12.69 115.59,-91.63 117,-91.63z"/>
     <path class="fil3" d="M4781.23 6903.8l32.42 0 42.29 -36.65 1.41 -4.23 70.48 40.88 39.47 0 167.75 -122.64 -2.82 -4.23c-14.09,-11.28 -78.94,63.44 -149.42,49.34 -43.7,-9.87 -36.65,-16.92 -69.07,-35.24 -22.56,-14.1 -40.88,25.37 -56.39,38.06 -49.34,38.06 -80.35,-88.81 -124.05,-29.6 -19.74,28.19 -39.47,31.01 -9.87,60.61 8.46,9.87 15.51,19.74 23.97,25.37 7.04,5.64 32.42,14.1 33.83,18.33z"/>
     <path class="fil3" d="M5517.07 6081.98c-2.82,2.82 -22.56,49.33 -25.38,56.38 -9.86,22.56 9.87,33.83 23.97,50.75 29.6,29.6 52.16,70.48 50.75,114.18 -1.41,40.88 -25.38,87.4 -38.07,126.87 -21.14,66.25 40.88,91.63 69.08,53.57 69.07,-90.22 -26.79,-31.02 -36.65,-69.08 -8.46,-29.6 23.96,-95.85 36.65,-125.46 21.14,-46.51 31.01,-77.53 -1.41,-124.04 -7.05,-12.69 -60.62,-100.09 -78.94,-83.17z"/>
     <path class="fil3" d="M4600.79 6176.42c-38.06,0 -74.71,71.89 -155.06,29.6 -25.37,-11.27 -45.11,-43.69 -66.25,-29.6 -12.69,9.87 -53.57,39.47 -40.88,56.39 102.9,135.32 262.19,-36.65 262.19,-56.39z"/>
     <path class="fil3" d="M5023.69 6172.19c-39.47,39.47 -85.99,62.03 7.05,102.91 69.07,29.6 98.67,-1.41 148.01,-38.06 8.46,-8.46 49.34,-39.47 56.39,-50.75 15.5,-28.19 -46.52,16.92 -57.8,21.14 -87.4,35.25 -140.96,-47.92 -153.65,-35.24z"/>
     <path class="fil3" d="M5424.03 6796.67c26.78,-23.97 -53.57,16.91 -54.98,18.32 -90.21,39.47 -125.46,-36.65 -152.24,-32.42 -11.28,2.82 -52.16,45.11 -52.16,52.16 1.41,35.24 100.09,71.89 143.79,53.56 46.52,-19.73 80.35,-59.2 115.59,-91.62z"/>
     <path class="fil3" d="M6007.63 6103.12c-21.15,15.51 -129.69,53.57 -160.7,64.84 -11.28,4.23 -164.93,87.4 -111.37,97.27 7.05,1.41 143.79,-56.39 159.3,-64.84 18.32,-9.87 64.84,-25.38 77.53,-35.24 9.86,-8.46 67.66,-84.58 35.24,-62.03z"/>
     <path class="fil3" d="M5347.91 6108.76c5.64,-4.23 5.64,-1.41 11.28,1.41 7.04,2.82 4.23,0 8.45,5.64 2.82,4.23 8.46,19.73 0,21.14 -7.04,0 -38.06,-18.32 -19.73,-28.19zm-157.88 191.71l177.61 -90.22 -8.45 -14.09c14.09,2.82 19.73,63.43 38.06,7.05 14.09,-39.47 -18.33,-14.1 0,-67.67 28.19,-85.99 -53.57,-76.12 -78.94,-28.19 -40.88,78.94 73.3,45.11 -18.33,112.77 -12.69,9.87 -109.95,74.71 -109.95,80.35z"/>
    </g>
    <path class="fil3" d="M4801.18 5742.88c0.69,-0.05 1.07,0.27 1.13,0.95 0.15,1.74 -0.68,4.23 -4.53,11.89 -1.48,2.9 -1.99,5.04 -1.87,6.43 0.24,2.76 2.9,5.31 7.26,7.36 9.72,3.67 24.53,5.86 35.23,4.92 7.94,-0.69 9.9,-2.25 12.45,-8.74 1.09,-3.58 2.57,-6.49 3.16,-7.59 0.59,-1.45 2.67,-5.45 6.33,-11.34 5.14,-8.8 6.74,-14.52 6.14,-21.41 -0.91,-10.37 -9.47,-24.58 -19.59,-32.75 -7.48,-5.95 -15.65,-8.03 -27.74,-6.98 -35.23,3.09 -69.51,21.06 -88.52,46.38 -10.6,14.16 -14.33,31.19 -12.21,55.37 0.99,11.4 3.7,18.46 9.52,25.27 7.32,8.06 20.93,20.44 28.66,25.33 7.75,4.89 10.03,7.12 10.33,10.59 0.3,3.44 -1.56,6.04 -8.08,11.13 -6.86,5.12 -14.22,8.56 -19.39,9.01 -2.07,0.18 -3.95,-1.39 -4.17,-3.81 -2.28,-10.24 -2.28,-10.24 -3.53,-12.57 -2,-2.96 -6.02,-5.04 -9.46,-4.74 -4.81,0.77 -8.58,1.44 -11,1.66 -3.44,0.3 -5.53,0.48 -5.83,0.86 -2.69,1.27 -2.69,1.27 -4.37,1.77 -4.03,1.75 -4.69,2.16 -7.29,8.29 -0.91,1.47 -2.71,4.77 -5.74,9.91 -4.51,8.05 -7.07,14.54 -6.78,17.98 0.4,4.49 6.01,13.06 15.29,23.73 12.73,14.2 20.77,18.36 32.5,17.33 8.64,-0.75 19.16,-3.76 32.92,-9.49 26.54,-11.02 43.88,-23.67 53.03,-38.39 9.16,-14.72 13.79,-33.23 12.52,-47.73 -1.05,-12.09 -6.4,-25.55 -13.29,-32.6 -4.18,-4.15 -18.02,-15.12 -30.18,-22.76 -8.14,-5.56 -11.57,-9.08 -11.82,-11.84 -0.27,-3.11 6.13,-9.59 13.07,-13.67 3.97,-2.44 7.27,-4.47 9.87,-6.43 4.29,-2.82 4.95,-3.23 5.98,-3.32zm1751.28 61.49c0.26,-0.03 0.83,0.7 0.88,1.22 0.05,0.52 -0.14,1.32 -0.57,2.4 -0.49,0.31 -1.62,5.37 -2.25,10.12 -0.52,2.91 -2.6,11.97 -5.85,25.57 -4.04,16.53 -5.46,24.22 -7.73,45.84 -1.97,19.22 -1.97,19.22 -1.84,20.77 0.27,3.11 2.26,5.02 7.42,7.19 3.22,1.01 5.94,2.34 8.13,3.45 8.79,4.98 8.79,4.98 10.59,4.83 2.33,-0.21 3.21,-2.12 2.87,-6 -1.67,-28.04 8.82,-93.18 24.26,-149.33 0.59,-2.15 0.96,-4 0.84,-5.3 -0.02,-3.13 -3,-7.57 -9.88,-14.53 -3.45,-3.62 -6.72,-5.15 -9.31,-4.93 -10.09,0.88 -50.09,59.97 -61.28,90.19 -0.83,2.42 -1.7,4.33 -2.61,5.97 -0.82,-0.45 -0.87,-0.97 -0.94,-1.75 -0.13,-1.55 -0.05,-3.65 0.27,-6.03 1.03,-38.97 1.03,-47.85 -0.07,-60.54 -0.53,-5.95 -1.81,-11.59 -3.18,-15.38 -1.99,-4.78 -4.21,-6.42 -10.59,-7.7 -10.64,-2.19 -12.24,-2.57 -15.61,-2.28 -2.84,0.24 -5.21,3.07 -4.93,6.17 0.22,2.59 2.28,11.29 3.38,14.85 0.35,1.01 -0.47,3.69 -2.54,6.75 -12.9,19.65 -19.79,33.31 -31.49,63.83 -21.46,55.9 -25.43,67.21 -25.02,71.88 0.24,2.84 3.25,7.28 7.84,12.1 4.32,4.58 7.05,5.91 10.93,5.57 6.47,-0.57 8.42,-2.3 9.61,-9.45 3.26,-16.47 12.29,-47.55 23.82,-79.87 2.09,-5.93 4.33,-13.17 6.2,-18.56 1.27,-3.49 2.76,-7.28 2.76,-7.28 0.45,-0.83 0.9,-1.65 0.88,-1.9l0.47 -0.57c0.78,-0.07 1.43,1.43 1.56,2.99 0.17,1.82 0.11,4.18 -0.13,7.33l0.14 31.57c-0.1,4.71 -0.58,41.03 -0.49,42.06 -0.34,2.13 -0.46,3.7 -0.36,4.73 0.33,3.88 3.76,7.24 9.75,10.12 8.13,3.45 10.29,4.31 11.85,4.17 2.33,-0.2 4.18,-2.96 5.51,-8.56 5.82,-22.96 22.23,-62.25 35.67,-84.57l5.88 -10.43c1.59,-2.75 3.66,-5.81 3.95,-5.56 0.49,-0.32 0.98,-0.61 0.96,-0.87l0.25 -0.28zm-177.75 -58.69c-5.7,0.5 -20.23,16.4 -34.31,37.46 -19.17,28.57 -30.89,70.57 -28.28,100.36 1.06,12.17 4.71,20.99 11.95,29.23 7.83,8.97 17.92,13.83 26.73,13.06 18.65,-1.63 41.65,-25.05 56.33,-57.13 10.73,-23.64 15.85,-48.63 14.01,-69.61 -1.83,-20.99 -11.01,-45.24 -16.7,-44.74 -0.77,0.07 -1.79,0.42 -2.75,1.29 -4.42,3.25 -6.41,4.47 -7.7,4.58 -1.04,0.09 -2.73,-1.32 -4.74,-3.5 -6.39,-7.27 -11.43,-11.27 -14.54,-11zm6.86 33.6c4.4,-0.39 9.02,7.56 9.86,17.15 1.56,17.86 -6.56,47.55 -19.89,74.04 -9.15,17.77 -17.17,27.6 -23.12,28.13 -3.38,0.29 -5.86,-4.2 -6.56,-12.23 -2.1,-24.08 6.81,-56.45 23.77,-86.38 7.03,-12.1 13.35,-20.48 15.94,-20.71zm-100.34 12.09c-2.07,6.24 -2.07,6.24 -1.93,7.8 0.32,3.65 5.77,6.31 11.98,5.77 15.55,-1.36 23.76,-14.95 21.89,-36.37 -1.43,-16.32 -9.32,-22.94 -25.38,-21.53 -18.39,1.61 -38.47,16.68 -53.12,40.24 -18.33,29.18 -29.24,68.63 -26.79,96.52 1.08,12.43 4.71,20.94 11.55,27.65 7.42,7.19 18.5,11.44 28.34,10.57 12.43,-1.08 28.8,-7.99 36.76,-15.21 5.56,-5.19 9.05,-13.06 8.53,-18.98 -0.48,-5.44 -2.91,-9.4 -5.5,-9.18 -1.82,0.16 -1.82,0.16 -8.96,4.97 -9.6,6.57 -21.19,11.47 -28.17,12.07 -7,0.62 -9.09,-2.29 -10.02,-12.91 -2.37,-27.11 8.77,-66.9 25.89,-91.97 8.51,-13.1 13.73,-19.08 16.32,-19.3 1.3,-0.12 2.99,1.3 3.12,2.86 0.12,1.33 0.12,1.33 -1.84,8.85l-2.67 8.15zm-121.64 93.39c-2.07,0.17 -3.53,1.35 -4.86,4.08 -3.21,5.24 -6.23,18.29 -5.78,23.48 0.39,4.4 3.27,7.54 9.5,10.12 8.13,3.46 12.73,5.15 14.53,5 2.08,-0.19 3.47,-2.13 4,-5.06 0.29,-2.63 0.6,-5 1.18,-7.4 0.3,-2.38 0.86,-5.04 1.69,-7.46 3.43,-8.65 3.43,-8.65 3.29,-10.21 -0.27,-3.1 -2.83,-5.49 -8.8,-8.1 -8.42,-3.69 -12.17,-4.68 -14.75,-4.45zm-54.25 -139.08c-5.7,0.5 -20.23,16.4 -34.32,37.46 -19.16,28.57 -30.88,70.57 -28.28,100.36 1.06,12.17 4.71,20.99 11.96,29.23 7.83,8.97 17.91,13.83 26.72,13.06 18.66,-1.63 41.66,-25.05 56.33,-57.13 10.73,-23.64 15.85,-48.63 14.02,-69.61 -1.83,-20.99 -11.01,-45.24 -16.71,-44.74 -0.77,0.07 -1.78,0.42 -2.75,1.29 -4.42,3.25 -6.41,4.47 -7.69,4.58 -1.05,0.09 -2.73,-1.32 -4.74,-3.5 -6.39,-7.27 -11.43,-11.27 -14.54,-11zm6.85 33.6c4.41,-0.39 9.02,7.56 9.86,17.15 1.56,17.86 -6.55,47.55 -19.88,74.04 -9.15,17.77 -17.17,27.6 -23.13,28.13 -3.37,0.29 -5.85,-4.2 -6.55,-12.23 -2.11,-24.08 6.81,-56.45 23.77,-86.38 7.03,-12.1 13.35,-20.48 15.93,-20.71zm-100.34 12.09c-2.06,6.24 -2.06,6.24 -1.93,7.8 0.32,3.65 5.78,6.31 11.99,5.77 15.55,-1.36 23.76,-14.95 21.88,-36.37 -1.42,-16.32 -9.32,-22.94 -25.37,-21.53 -18.4,1.61 -38.48,16.68 -53.13,40.24 -18.32,29.18 -29.24,68.63 -26.79,96.52 1.09,12.43 4.71,20.94 11.56,27.65 7.41,7.19 18.49,11.44 28.33,10.57 12.44,-1.08 28.8,-7.99 36.77,-15.21 5.56,-5.19 9.04,-13.06 8.52,-18.98 -0.47,-5.44 -2.9,-9.4 -5.5,-9.18 -1.81,0.16 -1.81,0.16 -8.95,4.97 -9.61,6.57 -21.19,11.47 -28.18,12.07 -7,0.62 -9.09,-2.29 -10.01,-12.91 -2.37,-27.11 8.77,-66.9 25.88,-91.97 8.52,-13.1 13.73,-19.08 16.33,-19.3 1.3,-0.12 2.98,1.3 3.12,2.86 0.12,1.33 0.12,1.33 -1.84,8.85l-2.68 8.15zm-121.63 93.39c-2.07,0.17 -3.53,1.35 -4.86,4.08 -3.21,5.24 -6.23,18.29 -5.78,23.48 0.39,4.4 3.26,7.54 9.5,10.12 8.13,3.46 12.72,5.15 14.53,5 2.07,-0.19 3.47,-2.13 4,-5.06 0.29,-2.63 0.6,-5 1.18,-7.4 0.3,-2.38 0.85,-5.04 1.68,-7.46 3.44,-8.65 3.44,-8.65 3.3,-10.21 -0.27,-3.1 -2.84,-5.49 -8.81,-8.1 -8.41,-3.69 -12.16,-4.68 -14.74,-4.45zm-166.38 -81.19c-0.65,0.41 -0.97,0.79 -0.97,0.79 -0.32,0.37 -0.63,0.75 -0.54,1.78 -4.54,15.7 -5.17,16.46 -13.86,20.71 -6.72,2.67 -9.87,6.42 -9.82,10.95 0.61,3.07 1.18,5.46 1.3,6.84 0.86,5.84 1.24,6.16 2.19,9.21 0.5,1.69 0.97,3.04 1.03,3.74 0.08,1.03 -0.17,2.09 -0.75,3.54 -7.41,14.57 -11.63,26.08 -11.24,30.56 0.13,1.39 1.43,4.4 2.56,5.35 1.16,1.29 2.29,2.23 3.42,3.18 0.75,0.63 1.96,2.61 3.58,5.25 8.52,13.88 10.02,15.14 21.33,16.92 1.05,0.27 3.92,1.07 7.46,1.8 1.4,0.22 2.48,0.48 3.17,0.41 2.07,-0.18 6.03,-2.62 7.6,-4.49 1.87,-2.6 3.26,-6.55 6.98,-19.75 2.12,-7.49 4.88,-15.74 7.93,-24.71 2.41,-8.21 2.73,-8.59 8.85,-10.17 3.78,-0.68 4.43,-1.09 6.08,-2.27 1.94,-1.56 3.3,-2.02 5.36,-2.21 6.91,-0.6 10.83,0.44 11.07,3.21 0.06,0.69 -0.92,5.3 -1.49,6.74 -0.87,2.16 -0.87,2.16 -0.77,3.2 -0.13,2.45 -3.4,12.83 -6.63,19.72 -1.46,3.26 -2.22,6.46 -2,8.88 0.39,4.49 3.45,7.7 8.47,9.35 3.95,1.39 8.65,3.42 8.33,3.8 8.67,7.59 8.67,7.59 10.87,8.79 4.73,2.38 9.38,3.7 11.1,3.55 0.69,-0.06 1.69,-0.49 3.05,-0.96 0.97,-0.78 1.64,-1.19 1.98,-1.22 0,0 1,-0.44 2.38,-0.55 7.17,-1.68 10.82,-7.56 12.28,-18.83 1.19,-6.37 3.8,-20.17 8.21,-41.44 8.84,-54.02 13.65,-94.46 13.18,-111.81 0.21,-5.59 0.15,-6.28 0.72,-7.73 0.22,-1.41 0.47,-2.48 0.45,-2.83l-0.49 -1.69c-0.41,-0.67 -1.23,-1.98 -1.69,-3.33 -2.53,-5 -2.9,-5.31 -12.86,-11.75 -1.82,-0.89 -3.35,-2.5 -3.42,-3.19 -0.06,-0.68 0.55,-1.78 1.84,-2.94 1.55,-2.22 5.12,-9.14 4.96,-10.88 -0.02,-4.16 -9.65,-10.98 -23.73,-16.71 -3.61,-1.42 -6.52,-2.91 -8.37,-4.14 -6.64,-4.29 -6.64,-4.29 -9.4,-4.06 -4.83,0.43 -6.76,2.34 -15.84,13.92 -16.55,21.64 -36.59,51.23 -39.46,58.1 -1.43,3.6 -2.29,5.76 -2.59,6.14 -0.29,0.72 -1.83,2.95 -3.98,6.26 -3.1,4.45 -6.07,10.27 -8.26,17.09 -2.69,8.92 -5.98,15.14 -8.59,17.1l-0.98 0.78zm81.63 -33.58c-1.32,12.64 -1.29,12.98 -5.57,31.8 -2.23,10.29 -3.52,11.45 -8.32,12.21 -4.15,0.36 -7.6,0.66 -10.68,1.29 -2.72,0.58 -4.96,-0.96 -5.17,-3.38 -0.12,-1.38 7.55,-21.2 11.12,-28.12 7.08,-14.53 13.29,-23.09 16.43,-23.01 1.41,0.22 2.57,1.51 2.78,3.93 0.03,0.34 0.1,1.03 -0.2,1.76l-0.18 1.75 -0.21 1.77zm-215.68 161.4c0.34,-0.03 2.88,1.14 6.52,2.91 2.19,1.19 5.01,1.64 7.43,1.44 8.29,-0.74 12.48,-4.58 20.34,-18.14 6.31,-11.35 12.38,-21.62 17.56,-30.08 18.2,-30.47 18.2,-30.47 26.77,-47.93 11.46,-24.32 29.55,-68 37.35,-90.27 2.21,-6.46 8,-35.85 8.02,-39.68 -0.32,-7.63 -6.21,-15.11 -18.42,-23.44 -9.27,-6.5 -15.76,-9.07 -20.24,-8.68 -6.23,0.55 -9.97,5.39 -12.08,17.08 -3.54,15.26 -5.1,21.32 -13.56,43.98 -3.39,9 -6.18,16.9 -7.53,21.2 -3.47,12.13 -5.79,17.55 -7.51,17.71 -3.11,0.27 -5.41,-6.14 -6.28,-16.16 -0.61,-6.91 -0.74,-12.47 -0.1,-17.04 1.27,-13.34 3.37,-33.02 3.26,-34.4 -0.36,-4.14 -3.03,-6.69 -10.59,-9.51 -19.09,-7.37 -20.87,-7.93 -29.16,-7.2 -12.78,1.12 -21.11,5.34 -22.35,11.01 -1.53,6.4 -2,32.89 -0.95,44.97 0.76,8.64 5.22,35.74 8.75,52.14 4.57,20.48 7.47,25.79 17.26,30.17 8.35,4.13 9.46,4.73 9.6,6.45 0.04,0.36 0.07,0.7 -0.25,1.08 -0.31,0.37 -0.88,1.81 -1.77,3.63 -2.47,7.52 -21.99,34.98 -29.05,41.86 -13.07,13.68 -15.5,17.73 -15.02,23.25 0.3,3.45 4.39,10.4 9.45,16.57 3.13,3.91 10.55,9.17 12.27,9.02l10.28 -1.94zm-153.59 0c0.34,-0.03 2.88,1.14 6.53,2.91 2.18,1.19 5,1.64 7.42,1.44 8.29,-0.74 12.48,-4.58 20.34,-18.14 6.31,-11.35 12.38,-21.62 17.56,-30.08 18.21,-30.47 18.21,-30.47 26.77,-47.93 11.46,-24.32 29.55,-68 37.35,-90.27 2.22,-6.46 8,-35.85 8.02,-39.68 -0.32,-7.63 -6.2,-15.11 -18.41,-23.44 -9.28,-6.5 -15.77,-9.07 -20.25,-8.68 -6.22,0.55 -9.97,5.39 -12.08,17.08 -3.54,15.26 -5.1,21.32 -13.56,43.98 -3.39,9 -6.18,16.9 -7.53,21.2 -3.46,12.13 -5.78,17.55 -7.51,17.71 -3.11,0.27 -5.4,-6.14 -6.28,-16.16 -0.61,-6.91 -0.74,-12.47 -0.1,-17.04 1.27,-13.34 3.38,-33.02 3.26,-34.4 -0.36,-4.14 -3.03,-6.69 -10.58,-9.51 -19.1,-7.37 -20.87,-7.93 -29.16,-7.2 -12.79,1.12 -21.12,5.34 -22.36,11.01 -1.53,6.4 -2,32.89 -0.94,44.97 0.76,8.64 5.21,35.74 8.74,52.14 4.57,20.48 7.47,25.79 17.26,30.17 8.36,4.13 9.46,4.73 9.6,6.45 0.04,0.36 0.07,0.7 -0.25,1.08 -0.31,0.37 -0.88,1.81 -1.77,3.63 -2.47,7.52 -21.99,34.98 -29.05,41.86 -13.07,13.68 -15.5,17.73 -15.02,23.25 0.3,3.45 4.39,10.4 9.45,16.57 3.13,3.91 10.55,9.17 12.27,9.02l10.28 -1.94zm-186.99 -127.82c-0.65,0.41 -0.98,0.79 -0.98,0.79 -0.31,0.37 -0.62,0.75 -0.53,1.78 -4.55,15.7 -5.17,16.46 -13.86,20.71 -6.72,2.67 -9.87,6.42 -9.82,10.95 0.61,3.07 1.18,5.46 1.29,6.84 0.86,5.84 1.24,6.16 2.2,9.21 0.5,1.69 0.96,3.04 1.02,3.74 0.09,1.03 -0.16,2.09 -0.74,3.54 -7.41,14.57 -11.63,26.08 -11.24,30.56 0.12,1.39 1.43,4.4 2.56,5.35 1.15,1.29 2.28,2.23 3.42,3.18 0.75,0.63 1.96,2.61 3.57,5.25 8.53,13.88 10.03,15.14 21.33,16.92 1.06,0.27 3.92,1.07 7.46,1.8 1.41,0.22 2.48,0.48 3.17,0.41 2.07,-0.18 6.04,-2.62 7.61,-4.49 1.86,-2.6 3.26,-6.55 6.98,-19.75 2.12,-7.49 4.88,-15.74 7.92,-24.71 2.41,-8.21 2.73,-8.59 8.86,-10.17 3.77,-0.68 4.43,-1.09 6.08,-2.27 1.94,-1.56 3.29,-2.02 5.36,-2.21 6.9,-0.6 10.83,0.44 11.07,3.21 0.06,0.69 -0.93,5.3 -1.49,6.74 -0.87,2.16 -0.87,2.16 -0.77,3.2 -0.13,2.45 -3.41,12.83 -6.64,19.72 -1.45,3.26 -2.21,6.46 -1.99,8.88 0.39,4.49 3.45,7.7 8.47,9.35 3.95,1.39 8.65,3.42 8.33,3.8 8.67,7.59 8.67,7.59 10.86,8.79 4.73,2.38 9.39,3.7 11.1,3.55 0.7,-0.06 1.7,-0.49 3.06,-0.96 0.97,-0.78 1.63,-1.19 1.98,-1.22 0,0 1,-0.44 2.38,-0.55 7.16,-1.68 10.82,-7.56 12.27,-18.83 1.19,-6.37 3.81,-20.17 8.22,-41.44 8.84,-54.02 13.65,-94.46 13.18,-111.81 0.21,-5.59 0.15,-6.28 0.71,-7.73 0.23,-1.41 0.48,-2.48 0.45,-2.83l-0.49 -1.69c-0.4,-0.67 -1.22,-1.98 -1.68,-3.33 -2.53,-5 -2.9,-5.31 -12.87,-11.75 -1.81,-0.89 -3.34,-2.5 -3.41,-3.19 -0.06,-0.68 0.55,-1.78 1.83,-2.94 1.55,-2.22 5.12,-9.14 4.97,-10.88 -0.02,-4.16 -9.66,-10.98 -23.73,-16.71 -3.61,-1.42 -6.53,-2.91 -8.37,-4.14 -6.64,-4.29 -6.64,-4.29 -9.4,-4.06 -4.84,0.43 -6.76,2.34 -15.84,13.92 -16.55,21.64 -36.59,51.23 -39.46,58.1 -1.43,3.6 -2.29,5.76 -2.59,6.14 -0.3,0.72 -1.84,2.95 -3.98,6.26 -3.1,4.45 -6.07,10.27 -8.26,17.09 -2.7,8.92 -5.98,15.14 -8.6,17.1l-0.97 0.78zm81.63 -33.58c-1.33,12.64 -1.3,12.98 -5.57,31.8 -2.23,10.29 -3.52,11.45 -8.33,12.21 -4.14,0.36 -7.59,0.66 -10.68,1.29 -2.72,0.58 -4.95,-0.96 -5.17,-3.38 -0.11,-1.38 7.55,-21.2 11.12,-28.12 7.08,-14.53 13.3,-23.09 16.44,-23.01 1.41,0.22 2.57,1.51 2.78,3.93 0.02,0.34 0.09,1.03 -0.2,1.76l-0.18 1.75 -0.21 1.77zm-211.34 62.32c1.09,0.59 1.91,1.91 2.02,3.29 0.15,1.73 0.37,4.15 0.33,7.63 7.25,43.22 7.25,43.22 13.43,54.16 7.78,13.24 25.39,27.71 33,27.04 2.07,-0.18 14.72,-6.85 21.63,-11.28 3.31,-2.03 3.31,-2.03 11.6,-6.58 2.02,-0.88 3.66,-5.9 3.39,-9.01 -0.27,-3.11 -1.58,-6.12 -3.54,-8.74 -5.82,-6.8 -9.35,-11.36 -10.23,-13.38 -3.98,-9.73 -7.09,-17.46 -8.99,-23.21 -2.7,-7.08 -7.09,-25.48 -7.52,-30.32 -0.33,-3.8 0.64,-4.58 10.23,-10.3 9.6,-5.71 17,-12.61 26.42,-24.22 15.67,-19.83 21.74,-33.93 20.5,-48.09 -1.21,-13.82 -11.65,-33.78 -22.95,-43.58 -12.39,-10.4 -32.4,-16.31 -50.7,-14.71 -10.36,0.91 -45.64,7.47 -50.01,9.25 -4.72,1.81 -7.76,2.77 -8.42,3.17 -6.5,1.26 -8.19,1.76 -9.17,2.54 -1.96,1.56 -1.96,1.56 -3.94,2.79 -4.96,2.87 -5.29,3.24 -4.74,9.46 0.6,6.91 2.59,13.7 5.18,19.38 2.5,4.65 3.8,7.68 3.93,9.05 0.17,2.08 -0.91,5.66 -2.93,10.36 -2.03,4.69 -4.79,12.94 -8.08,22.98 -0.54,1.78 -4.89,15.74 -13.45,41.19 -14.14,41.26 -22.63,71.59 -22.08,77.81 0.27,3.09 0.27,3.09 9.87,17.22 5.52,7.53 6.65,8.47 12.96,8.97 9.1,0.59 10.53,1.16 15.26,3.54 7.69,4.19 9.88,5.39 11.26,5.26 4.48,-0.39 9.5,-14.73 15.09,-42.37 2.62,-13.81 4.25,-23 5.13,-24.82 1.06,-3.92 2.58,-10.31 3.64,-18.07 0.36,-3.86 1.21,-6.01 1.88,-6.41zm47.1 -98.1c6.21,-0.53 9.5,1.26 9.87,5.41 0.36,4.14 -6.83,13.47 -14.64,19.73 -8.8,6.68 -19.66,13.89 -21.73,14.07 -0.69,0.07 -1.47,-0.92 -1.57,-1.95 -0.14,-1.73 0.68,-4.23 3.59,-10.76 1.77,-3.63 3.19,-7.23 3.42,-8.64 3.65,-13.91 3.65,-13.91 5.29,-15.09 1.32,-0.81 6.79,-1.98 15.77,-2.77zm-217.49 -51.64c-6.84,1.29 -6.84,1.29 -36.45,32.77 -15.95,16.71 -35.85,55.68 -43.71,85.26 -5.53,20.32 -8.87,53.67 -7.21,72.67 1.33,15.2 5.32,21.11 25.11,36.44 19.03,14.68 28.49,19.43 37.82,18.61 21.41,-1.87 54.36,-27.02 74.06,-56.59 23.09,-34.39 36.05,-81.12 32.88,-117.38 -1.67,-19 -7.26,-35.2 -17.38,-51.37 -4.83,-7.58 -8.15,-9.73 -14.72,-9.15 -2.76,0.24 -6.15,1.23 -8.45,2.82 -7.61,4.49 -7.61,4.49 -8.99,4.62 -2.07,0.17 -3.58,-1.08 -12.46,-11.1 -5.78,-6.45 -10.98,-10.17 -14.09,-9.9 -0.69,0.06 -0.69,0.06 -1.7,0.5l-4.71 1.8zm14.61 67.64c3.47,-0.3 6.33,4.66 6.56,11.24 0.52,10.06 -1.92,21.75 -7.62,36.18 -5.1,13.31 -16.75,39.4 -19.46,44.16 -17.67,28.69 -17.99,29.06 -21.09,29.33 -1.74,0.15 -2.98,-2.17 -3.25,-5.27 -0.48,-5.53 0.24,-9.08 6.38,-30.5 10.58,-38.16 10.58,-38.16 20.41,-57.12 10.62,-21.81 14.63,-27.73 18.07,-28.02z"/>
   </g>
  </g>
 </g>
</svg>
